<?xml version="1.0" encoding="UTF-8" standalone="no"?>
<!-- Generator: Adobe Illustrator 19.0.0, SVG Export Plug-In . SVG Version: 6.00 Build 0)  -->

<svg
   xmlns:dc="http://purl.org/dc/elements/1.1/"
   xmlns:cc="http://creativecommons.org/ns#"
   xmlns:rdf="http://www.w3.org/1999/02/22-rdf-syntax-ns#"
   xmlns:svg="http://www.w3.org/2000/svg"
   xmlns="http://www.w3.org/2000/svg"
   xmlns:sodipodi="http://sodipodi.sourceforge.net/DTD/sodipodi-0.dtd"
   xmlns:inkscape="http://www.inkscape.org/namespaces/inkscape"
   version="1.1"
   id="Capa_1"
   x="0px"
   y="0px"
   viewBox="0 0 32 32"
   xml:space="preserve"
   sodipodi:docname="add.svg"
   width="32"
   height="32"
   inkscape:version="0.92.4 (5da689c313, 2019-01-14)"
   inkscape:export-filename="/home/ronin/Projects/active/anvid/anvid/images/add.png"
   inkscape:export-xdpi="95.962097"
   inkscape:export-ydpi="95.962097"><metadata
   id="metadata49"><rdf:RDF><cc:Work
       rdf:about=""><dc:format>image/svg+xml</dc:format><dc:type
         rdf:resource="http://purl.org/dc/dcmitype/StillImage" /><dc:title /></cc:Work></rdf:RDF></metadata><defs
   id="defs47" /><sodipodi:namedview
   pagecolor="#ffffff"
   bordercolor="#666666"
   borderopacity="1"
   objecttolerance="10"
   gridtolerance="10"
   guidetolerance="10"
   inkscape:pageopacity="0"
   inkscape:pageshadow="2"
   inkscape:window-width="1920"
   inkscape:window-height="1012"
   id="namedview45"
   showgrid="false"
   inkscape:zoom="7.375"
   inkscape:cx="-39.015311"
   inkscape:cy="29.354255"
   inkscape:window-x="0"
   inkscape:window-y="32"
   inkscape:window-maximized="1"
   inkscape:current-layer="Capa_1" />

<g
   id="g12"
   transform="matrix(0.10085898,0,0,0.10085898,-9.8198989,-9.6399665)">
	<g
   id="g10">
		<path
   d="M 355.148,234.386 H 275.83 v -79.318 c 0,-10.946 -8.864,-19.83 -19.83,-19.83 -10.966,0 -19.83,8.884 -19.83,19.83 v 79.318 h -79.318 c -10.966,0 -19.83,8.884 -19.83,19.83 0,10.946 8.864,19.83 19.83,19.83 h 79.318 v 79.318 c 0,10.946 8.864,19.83 19.83,19.83 10.966,0 19.83,-8.884 19.83,-19.83 v -79.318 h 79.318 c 10.966,0 19.83,-8.884 19.83,-19.83 0,-10.946 -8.864,-19.83 -19.83,-19.83 z"
   id="path8"
   inkscape:connector-curvature="0" />
	</g>
</g>
<g
   id="g14"
   transform="translate(0,-480)">
</g>
<g
   id="g16"
   transform="translate(0,-480)">
</g>
<g
   id="g18"
   transform="translate(0,-480)">
</g>
<g
   id="g20"
   transform="translate(0,-480)">
</g>
<g
   id="g22"
   transform="translate(0,-480)">
</g>
<g
   id="g24"
   transform="translate(0,-480)">
</g>
<g
   id="g26"
   transform="translate(0,-480)">
</g>
<g
   id="g28"
   transform="translate(0,-480)">
</g>
<g
   id="g30"
   transform="translate(0,-480)">
</g>
<g
   id="g32"
   transform="translate(0,-480)">
</g>
<g
   id="g34"
   transform="translate(0,-480)">
</g>
<g
   id="g36"
   transform="translate(0,-480)">
</g>
<g
   id="g38"
   transform="translate(0,-480)">
</g>
<g
   id="g40"
   transform="translate(0,-480)">
</g>
<g
   id="g42"
   transform="translate(0,-480)">
</g>
</svg>