<?xml version="1.0" encoding="UTF-8" standalone="no"?>
<svg
   xmlns:dc="http://purl.org/dc/elements/1.1/"
   xmlns:cc="http://creativecommons.org/ns#"
   xmlns:rdf="http://www.w3.org/1999/02/22-rdf-syntax-ns#"
   xmlns:svg="http://www.w3.org/2000/svg"
   xmlns="http://www.w3.org/2000/svg"
   xmlns:sodipodi="http://sodipodi.sourceforge.net/DTD/sodipodi-0.dtd"
   xmlns:inkscape="http://www.inkscape.org/namespaces/inkscape"
   height="32"
   viewBox="0 0 23.999999 23.999999"
   width="32"
   version="1.1"
   id="svg8"
   sodipodi:docname="delete.svg"
   inkscape:version="0.92.4 (5da689c313, 2019-01-14)"
   inkscape:export-filename="/home/ronin/Projects/active/anvid/anvid/images/delete.png"
   inkscape:export-xdpi="95.962097"
   inkscape:export-ydpi="95.962097">
  <metadata
     id="metadata14">
    <rdf:RDF>
      <cc:Work
         rdf:about="">
        <dc:format>image/svg+xml</dc:format>
        <dc:type
           rdf:resource="http://purl.org/dc/dcmitype/StillImage" />
        <dc:title />
      </cc:Work>
    </rdf:RDF>
  </metadata>
  <defs
     id="defs12" />
  <sodipodi:namedview
     pagecolor="#ffffff"
     bordercolor="#666666"
     borderopacity="1"
     objecttolerance="10"
     gridtolerance="10"
     guidetolerance="10"
     inkscape:pageopacity="0"
     inkscape:pageshadow="2"
     inkscape:window-width="1920"
     inkscape:window-height="1012"
     id="namedview10"
     showgrid="false"
     units="px"
     inkscape:zoom="11.0625"
     inkscape:cx="13.19249"
     inkscape:cy="12.98278"
     inkscape:window-x="0"
     inkscape:window-y="32"
     inkscape:window-maximized="1"
     inkscape:current-layer="svg8" />
  <g
     id="g820"
     transform="matrix(2.1388971,0,0,2.1388971,-13.666764,-13.666801)">
    <path
       style="stroke-width:0.03515625"
       inkscape:connector-curvature="0"
       id="path4"
       d="m 15.214325,15.857162 c -0.164521,0 -0.329041,-0.06276 -0.45456,-0.188416 L 8.3312525,9.2402337 c -0.2511749,-0.2511749 -0.2511749,-0.6579436 0,-0.9089813 0.2510378,-0.2510375 0.6579436,-0.2511749 0.9089814,0 l 6.4285121,6.4285126 c 0.251175,0.251175 0.251175,0.657944 0,0.908981 -0.125518,0.125657 -0.289901,0.188416 -0.454421,0.188416 z m 0,0" />
    <path
       style="stroke-width:0.03515625"
       inkscape:connector-curvature="0"
       id="path6"
       d="m 8.7856745,15.857162 c -0.1645204,0 -0.3289033,-0.06276 -0.454422,-0.188416 -0.2511749,-0.251037 -0.2511749,-0.657944 0,-0.908981 L 14.759765,8.3312524 c 0.251175,-0.2511749 0.657944,-0.2511749 0.908981,0 0.251038,0.2510377 0.251175,0.6579436 0,0.9089813 L 9.2402339,15.668746 c -0.1255187,0.125657 -0.2900391,0.188416 -0.4545594,0.188416 z m 0,0" />
  </g>
</svg>
