<?xml version="1.0" encoding="UTF-8" standalone="no"?>
<!-- Generator: Adobe Illustrator 18.1.1, SVG Export Plug-In . SVG Version: 6.00 Build 0)  -->

<svg
   xmlns:dc="http://purl.org/dc/elements/1.1/"
   xmlns:cc="http://creativecommons.org/ns#"
   xmlns:rdf="http://www.w3.org/1999/02/22-rdf-syntax-ns#"
   xmlns:svg="http://www.w3.org/2000/svg"
   xmlns="http://www.w3.org/2000/svg"
   xmlns:sodipodi="http://sodipodi.sourceforge.net/DTD/sodipodi-0.dtd"
   xmlns:inkscape="http://www.inkscape.org/namespaces/inkscape"
   version="1.1"
   id="Capa_1"
   x="0px"
   y="0px"
   viewBox="0 0 32 32"
   xml:space="preserve"
   sodipodi:docname="new-project.svg"
   width="32"
   height="32"
   inkscape:version="0.92.4 (5da689c313, 2019-01-14)"
   inkscape:export-filename="/home/ronin/Projects/active/anvid/anvid/images/new-project.png"
   inkscape:export-xdpi="192"
   inkscape:export-ydpi="192"><metadata
   id="metadata41"><rdf:RDF><cc:Work
       rdf:about=""><dc:format>image/svg+xml</dc:format><dc:type
         rdf:resource="http://purl.org/dc/dcmitype/StillImage" /><dc:title></dc:title></cc:Work></rdf:RDF></metadata><defs
   id="defs39" /><sodipodi:namedview
   pagecolor="#ffffff"
   bordercolor="#666666"
   borderopacity="1"
   objecttolerance="10"
   gridtolerance="10000"
   guidetolerance="10"
   inkscape:pageopacity="0"
   inkscape:pageshadow="2"
   inkscape:window-width="1920"
   inkscape:window-height="1012"
   id="namedview37"
   showgrid="true"
   inkscape:zoom="12.000158"
   inkscape:cx="-3.0861201"
   inkscape:cy="24.680891"
   inkscape:window-x="0"
   inkscape:window-y="32"
   inkscape:window-maximized="1"
   inkscape:current-layer="Capa_1"
   inkscape:object-nodes="true"
   inkscape:snap-others="true"
   inkscape:snap-page="false"
   inkscape:snap-global="true"
   inkscape:snap-bbox="true"
   inkscape:snap-object-midpoints="false"
   inkscape:snap-center="false"><inkscape:grid
     type="xygrid"
     id="grid831" /></sodipodi:namedview>
<g
   id="g4"
   transform="matrix(0.46266977,0,0,0.44372227,3.5728378,4.2251109)">
	<path
   style="fill:#010002"
   d="m 50.274,17.877 c 0,-10e-4 0,-0.002 0,-0.004 -0.034,-0.17 -0.097,-0.33 -0.173,-0.484 -0.019,-0.04 -0.04,-0.077 -0.061,-0.115 -0.087,-0.152 -0.188,-0.298 -0.313,-0.424 L 33.463,0.586 C 33.337,0.46 33.192,0.359 33.039,0.273 33.001,0.252 32.965,0.231 32.926,0.212 32.654,0.079 32.357,0 32.049,0 H 7.312 c -1.104,0 -2,0.896 -2,2 v 51.625 c 0,1.105 0.896,2 2,2 h 41 c 1.104,0 2,-0.895 2,-2 V 18.264 c 0,-0.131 -0.013,-0.26 -0.038,-0.387 z M 43.483,16.264 H 34.048 V 6.828 l 4.718,4.718 z M 9.312,51.625 V 4 h 20.736 v 14.264 c 0,1.104 0.896,2 2,2 h 14.264 v 31.361 z"
   id="path2"
   inkscape:connector-curvature="0" />
</g>
<g
   id="g6"
   transform="translate(0,-23.625)">
</g>
<g
   id="g8"
   transform="translate(0,-23.625)">
</g>
<g
   id="g10"
   transform="translate(0,-23.625)">
</g>
<g
   id="g12"
   transform="translate(0,-23.625)">
</g>
<g
   id="g14"
   transform="translate(0,-23.625)">
</g>
<g
   id="g16"
   transform="translate(0,-23.625)">
</g>
<g
   id="g18"
   transform="translate(0,-23.625)">
</g>
<g
   id="g20"
   transform="translate(0,-23.625)">
</g>
<g
   id="g22"
   transform="translate(0,-23.625)">
</g>
<g
   id="g24"
   transform="translate(0,-23.625)">
</g>
<g
   id="g26"
   transform="translate(0,-23.625)">
</g>
<g
   id="g28"
   transform="translate(0,-23.625)">
</g>
<g
   id="g30"
   transform="translate(0,-23.625)">
</g>
<g
   id="g32"
   transform="translate(0,-23.625)">
</g>
<g
   id="g34"
   transform="translate(0,-23.625)">
</g>
</svg>