<?xml version="1.0" encoding="UTF-8" standalone="no"?>
<!-- Generator: Adobe Illustrator 19.0.0, SVG Export Plug-In . SVG Version: 6.00 Build 0)  -->

<svg
   xmlns:dc="http://purl.org/dc/elements/1.1/"
   xmlns:cc="http://creativecommons.org/ns#"
   xmlns:rdf="http://www.w3.org/1999/02/22-rdf-syntax-ns#"
   xmlns:svg="http://www.w3.org/2000/svg"
   xmlns="http://www.w3.org/2000/svg"
   xmlns:sodipodi="http://sodipodi.sourceforge.net/DTD/sodipodi-0.dtd"
   xmlns:inkscape="http://www.inkscape.org/namespaces/inkscape"
   version="1.1"
   id="Capa_1"
   x="0px"
   y="0px"
   viewBox="0 0 32 32"
   xml:space="preserve"
   sodipodi:docname="step-forward.svg"
   width="32"
   height="32"
   inkscape:version="0.92.4 (5da689c313, 2019-01-14)"
   inkscape:export-filename="/home/ronin/Projects/active/anvid/anvid/images/step-forward.png"
   inkscape:export-xdpi="95.962097"
   inkscape:export-ydpi="95.962097"><metadata
   id="metadata49"><rdf:RDF><cc:Work
       rdf:about=""><dc:format>image/svg+xml</dc:format><dc:type
         rdf:resource="http://purl.org/dc/dcmitype/StillImage" /><dc:title /></cc:Work></rdf:RDF></metadata><defs
   id="defs47" /><sodipodi:namedview
   pagecolor="#ffffff"
   bordercolor="#666666"
   borderopacity="1"
   objecttolerance="10"
   gridtolerance="10"
   guidetolerance="10"
   inkscape:pageopacity="0"
   inkscape:pageshadow="2"
   inkscape:window-width="1920"
   inkscape:window-height="1012"
   id="namedview45"
   showgrid="false"
   inkscape:zoom="4.9166667"
   inkscape:cx="44.779661"
   inkscape:cy="-32.178179"
   inkscape:window-x="0"
   inkscape:window-y="32"
   inkscape:window-maximized="1"
   inkscape:current-layer="Capa_1" />

<g
   id="g862"
   transform="matrix(0.07574152,0,0,0.08257188,1.4576282,29.211508)"><g
     transform="translate(0,-352)"
     id="g6">
	<g
   id="g4">
		<path
   inkscape:connector-curvature="0"
   id="path2"
   d="m 378.984,180.364 -144,-136 C 230.336,39.98 223.528,38.788 217.664,41.308 211.8,43.828 208,49.612 208,55.996 v 98.88 L 90.984,44.364 C 86.336,39.98 79.52,38.788 73.664,41.308 67.8,43.828 64,49.612 64,55.996 v 72 c 0,8.832 7.168,16 16,16 8.832,0 16,-7.168 16,-16 V 93.116 L 200.696,191.996 96,290.876 v -34.88 c 0,-8.832 -7.168,-16 -16,-16 -8.832,0 -16,7.168 -16,16 v 72 c 0,6.384 3.8,12.168 9.664,14.688 2.04,0.888 4.192,1.312 6.336,1.312 4.008,0 7.952,-1.504 10.984,-4.368 L 208,229.116 v 98.88 c 0,6.384 3.8,12.168 9.664,14.688 2.04,0.888 4.192,1.312 6.336,1.312 4.008,0 7.952,-1.504 10.984,-4.368 l 144,-136 c 3.2,-3.024 5.016,-7.232 5.016,-11.632 0,-4.4 -1.816,-8.608 -5.016,-11.632 z M 240,290.876 V 93.116 l 104.696,98.88 z" />
	</g>
</g><g
     transform="translate(0,-352)"
     id="g12">
	<g
   id="g10">
		<path
   inkscape:connector-curvature="0"
   id="path8"
   d="M 112,175.996 H 16 c -8.832,0 -16,7.168 -16,16 0,8.832 7.168,16 16,16 h 96 c 8.832,0 16,-7.168 16,-16 0,-8.832 -7.168,-16 -16,-16 z" />
	</g>
</g></g>
<g
   id="g14"
   transform="translate(0,-352)">
</g>
<g
   id="g16"
   transform="translate(0,-352)">
</g>
<g
   id="g18"
   transform="translate(0,-352)">
</g>
<g
   id="g20"
   transform="translate(0,-352)">
</g>
<g
   id="g22"
   transform="translate(0,-352)">
</g>
<g
   id="g24"
   transform="translate(0,-352)">
</g>
<g
   id="g26"
   transform="translate(0,-352)">
</g>
<g
   id="g28"
   transform="translate(0,-352)">
</g>
<g
   id="g30"
   transform="translate(0,-352)">
</g>
<g
   id="g32"
   transform="translate(0,-352)">
</g>
<g
   id="g34"
   transform="translate(0,-352)">
</g>
<g
   id="g36"
   transform="translate(0,-352)">
</g>
<g
   id="g38"
   transform="translate(0,-352)">
</g>
<g
   id="g40"
   transform="translate(0,-352)">
</g>
<g
   id="g42"
   transform="translate(0,-352)">
</g>
</svg>